
<svg xmlns="http://www.w3.org/2000/svg" viewBox="0 0 756 457">
<path fill="#ffffff" opacity="1.000000" stroke="none" 
	d="
M472.516968,398.631714 
	C467.625580,396.096924 462.639191,394.272827 460.670013,388.791077 
	C460.050079,387.065277 458.239349,386.992859 456.853271,386.901886 
	C452.853729,386.639252 450.080658,384.376312 447.544922,381.674225 
	C434.515411,367.790039 426.211151,351.734344 424.550781,332.478577 
	C424.191620,328.313019 423.581329,324.261353 424.599426,320.114868 
	C425.066406,318.212952 424.802979,316.349762 427.600189,315.708557 
	C429.685852,315.230499 428.882996,312.743439 428.409180,311.374908 
	C425.532959,303.067963 428.342560,295.644501 431.731232,288.312866 
	C438.320496,274.056549 448.028381,262.464294 461.360870,254.019104 
	C462.624542,253.218628 464.162720,251.730804 465.381317,252.393295 
	C470.127411,254.973618 472.660553,251.449753 475.847931,249.236679 
	C491.722046,238.214951 509.481720,237.045181 527.056519,242.390030 
	C560.424133,252.537842 583.410950,273.621460 590.731934,309.026215 
	C592.409302,317.138489 593.207520,325.435608 590.678406,333.408325 
	C588.878784,334.566376 588.019531,332.818787 586.751099,332.694824 
	C586.657288,333.000153 586.428894,333.331909 586.494751,333.588043 
	C590.357788,348.618713 584.303162,360.978912 575.764282,372.523682 
	C568.640015,382.156006 559.890137,390.041687 548.959839,395.224213 
	C545.413147,396.905914 541.858032,399.003601 537.614441,397.290894 
	C536.589417,396.877197 535.700500,397.670837 534.892822,398.227448 
	C519.372803,408.923279 502.546387,407.777496 485.480621,403.473755 
	C481.154205,402.382660 477.057281,400.381622 472.516968,398.631714 
M529.578125,360.075165 
	C533.876953,356.283356 538.175781,352.491547 543.510986,347.785614 
	C544.082092,363.348145 540.841614,376.840668 535.501526,389.862762 
	C539.547546,391.686798 539.632385,391.723724 541.426575,387.602661 
	C552.960571,361.110504 555.561584,334.104279 545.997253,306.414734 
	C545.693237,305.534637 545.110229,304.533630 546.683899,303.510803 
	C559.396667,310.818207 570.886536,319.951996 581.057861,330.908386 
	C583.063049,326.646606 582.716492,324.540771 577.874084,319.519165 
	C561.269531,302.300323 542.080627,289.239594 518.558777,283.242310 
	C515.077271,282.354645 511.284149,282.612640 507.174927,280.132355 
	C520.603394,271.579895 534.556030,265.855927 549.516968,261.956390 
	C544.325378,258.740601 541.867126,258.349823 535.242493,260.408112 
	C511.447205,267.801300 490.230896,279.461884 473.362335,298.218719 
	C472.620850,299.043182 472.039032,300.219574 470.019409,299.794617 
	C468.638794,285.835724 472.151703,272.429565 475.933014,258.701660 
	C472.583771,260.020294 469.940338,261.239990 468.858246,264.483337 
	C462.922363,282.274414 460.855377,300.478119 462.942291,319.130890 
	C463.841858,327.171326 465.382324,335.091583 468.494873,343.976349 
	C454.845154,336.585663 444.502075,327.080078 434.045135,317.574768 
	C431.061157,320.803009 432.631409,323.061890 434.669739,325.238617 
	C449.688782,341.277313 467.133545,353.814972 487.759735,361.642395 
	C492.933197,363.605682 498.313904,365.022797 504.766418,367.059235 
	C491.923615,375.305908 478.381165,378.861481 464.570099,382.505493 
	C467.446136,386.955383 470.973328,385.908691 474.339783,385.225098 
	C494.439056,381.143951 512.458984,372.449249 529.578125,360.075165 
z"/>
<path fill="#FFFFFF" opacity="1.000000" stroke="none" 
	d="
M588.599854,394.571930 
	C616.774597,379.101013 641.249146,359.570496 662.692322,336.127838 
	C665.875732,332.647614 665.368652,330.574493 662.505737,327.458832 
	C639.340881,302.248810 613.252991,280.720886 583.329163,263.951141 
	C582.213928,263.326111 580.785400,263.065277 579.969116,261.130188 
	C583.106873,260.230194 586.101501,260.724792 589.108704,261.162292 
	C605.337402,263.523315 620.040100,270.156555 634.497742,277.431793 
	C651.448120,285.961426 667.806458,295.644958 685.277283,303.168579 
	C699.081360,309.113159 713.246948,312.864075 728.428528,311.766449 
	C729.679382,311.676025 731.091309,311.338654 732.289795,312.521332 
	C732.288635,314.930847 730.353516,316.225555 728.947632,317.728546 
	C701.285156,347.301117 671.001587,373.683868 636.107117,394.553528 
	C603.127258,414.278076 568.007629,427.713409 529.679321,432.446136 
	C470.871399,439.707672 416.912506,426.592377 367.560150,394.171204 
	C352.911133,384.547791 339.616821,373.156250 327.230743,360.737579 
	C326.556061,360.061127 325.620667,359.476532 325.775879,357.970947 
	C327.821411,357.163818 328.937225,358.954590 330.287445,359.837067 
	C358.069305,377.995972 386.384430,395.117859 417.817596,406.452637 
	C445.899445,416.578857 474.802094,421.532410 504.592743,419.428528 
	C534.198120,417.337769 562.095459,408.792938 588.599854,394.571930 
z"/>
<path fill="#FFFFFF" opacity="1.000000" stroke="none" 
	d="
M321.804749,344.254730 
	C309.725433,339.064423 297.362549,336.975739 284.990173,336.743835 
	C284.160278,334.918030 285.111023,334.258453 285.775696,333.614319 
	C321.169342,299.314148 358.166504,267.090088 402.560547,244.627274 
	C436.433807,227.487839 472.192963,216.873138 510.317566,216.303009 
	C555.039856,215.634216 596.366028,228.266266 634.970703,250.432266 
	C653.117310,260.851624 669.629883,273.461578 685.014771,287.583435 
	C686.790527,289.213440 689.055176,290.537506 689.888550,293.292694 
	C687.858032,294.295197 686.754272,292.666473 685.486145,291.908875 
	C660.459045,276.957123 635.470032,261.941132 608.536621,250.531509 
	C576.324768,236.885818 542.958923,229.633896 507.805145,232.371933 
	C480.099945,234.529800 454.512207,243.518738 430.217407,256.621643 
	C396.371826,274.875641 367.918304,299.787689 342.111481,327.966919 
	C341.438782,328.701477 340.835846,329.506073 340.258362,330.319153 
	C339.976715,330.715729 339.828796,331.207214 339.254303,332.443207 
	C370.879272,355.713379 404.615723,375.567078 440.469818,392.100067 
	C431.906219,392.751160 423.681885,391.906219 415.541290,389.546783 
	C397.785858,384.400635 381.678802,375.744202 365.683868,366.763763 
	C351.455383,358.775055 337.352936,350.520081 321.804749,344.254730 
z"/>
<path fill="#000001" opacity="1.000000" stroke="none" 
	d="
M511.356354,362.522888 
	C488.371704,365.032257 469.847076,349.545410 467.476379,326.265747 
	C465.490601,306.765808 482.163391,287.131042 502.681610,284.806183 
	C525.187622,282.256073 544.460144,298.209503 546.714172,321.255554 
	C548.713623,341.698639 532.888245,360.365265 511.356354,362.522888 
z"/>
</svg>

